<svg height="960" viewBox="0 0 960 960" width="960" xmlns="http://www.w3.org/2000/svg"><g fill="none" fill-rule="evenodd" stroke="#000" stroke-linejoin="round"><g stroke-width="20"><path d="m538.686228 746.983553c126.145479-3.77188 211.515372-124.843392 211.515372-268.483553s-85.369893-261.570789-211.515372-265.342668c-126.145479-3.77188-228.406595 115.72919-228.406595 266.91311 0 151.183921 102.261116 270.684991 228.406595 266.913111z"/><path d="m544.418334 739.750158c122.726913-3.669661 205.783266-121.460113 205.783266-261.207599 0-139.747485-83.056353-254.482171-205.783266-258.151832s-222.216734 112.592907-222.216734 259.679715 99.489821 263.349377 222.216734 259.679716z"/><path d="m543.270025 639.018699c75.120342-2.246175 125.958593-74.344941 125.958593-159.883464s-50.838251-155.766874-125.958593-158.01305c-75.120341-2.246175-136.01741 68.917384-136.01741 158.948257 0 90.030874 60.897069 161.194433 136.01741 158.948257z"/><path d="m805.32 53.1289893c20.788571 189.2085257 31.182857 330.9988627 31.182857 425.3710107s-10.394286 234.825167-31.182857 421.359056" stroke-linecap="round"/></g><path d="m128.279754 29.4470235c8.223932-4.8104077 17.886883-7.3805247 28.114019-6.8999668l683 32.0931547c13.602909.6391804 25.754465 6.5661695 34.505295 15.7378429 8.75083 9.1716733 14.100932 21.5880309 14.100932 35.2059477v752.445268c0 13.640118-5.366972 26.0726-14.140567 35.247443-8.773595 9.174842-20.953812 15.092045-34.580303 15.701606l-681.97913 30.506681-.063984 6.859486-55.12182-23.893875c-9.1412839-3.962509-16.6698328-10.449786-21.9130609-18.437226-5.243228-7.987439-8.2011351-17.475042-8.2011351-27.438201v-790.999427c0-10.2981327 3.1573929-20.0694466 8.7130127-28.2025652 5.5556198-8.1331185 13.5094666-14.6280417 23.1015993-18.3730902z" stroke-width="40"/><path d="m126.878331 43.5979296c7.759619-7.0631064 18.213723-11.1660178 29.523082-10.6345962l682.983678 32.0930908c10.935662.5138618 20.704551 5.2786998 27.739523 12.6520047 7.034972 7.3733048 11.336029 17.3550765 11.336029 28.3028061v752.445327c0 10.965577-4.314619 20.960312-11.367893 28.336165-7.053274 7.375852-16.845204 12.132823-27.799825 12.622872l-682.983678 30.552929c-.610379.027305-1.221293.040963-1.832282.040963-11.321838 0-21.571838-4.589082-28.991378-12.008622-7.419541-7.419541-12.008622-17.669541-12.008622-28.991378v-815.0913471c0-.6417479.015067-1.2834073.045189-1.9244478.531422-11.3093587 5.596557-21.3326601 13.356177-28.3957665z" stroke-linecap="round" stroke-width="20"/></g></svg>