<svg height="960" viewBox="0 0 960 960" width="960" xmlns="http://www.w3.org/2000/svg"><g fill="none" fill-rule="evenodd" stroke="#000" stroke-linejoin="round"><path d="m148.258923 232.91859c52.738418-38.353216 116.742673-56.202825 180.538909-46.582942l385.581122 24.478881-.203954 1.694471.784434.085284c11.002757 1.22788 22.01701 3.255814 32.986393 6.121094l1.43053.378484c68.408195 18.329921 122.197258 65.829393 153.596302 128.143494 30.873027 61.270177 40.02025 136.894702 19.791728 212.388574-19.628017 73.252757-63.270963 132.787221-118.25756 170.626972-55.795267 38.396247-123.220492 54.501067-189.619214 40.582665l-340.646183-28.589017c-21.754844.57197-43.77425-1.917457-65.604187-7.766771-67.683042-18.135616-120.9038646-65.129778-151.9703944-126.783978-30.5405139-60.610276-39.5909508-135.420307-19.5801834-210.101507 18.7196334-69.862623 59.5229034-127.114494 111.1722578-164.675704z" stroke-width="40"/><g stroke-linecap="round" stroke-width="20"><path d="m557.770297 261.633403c55.95107-36.693214 123.390463-50.465093 189.017869-32.880283 65.627407 17.584811 117.145695 63.231305 147.254136 122.984095 29.845433 59.230828 38.613127 132.337811 19.062827 205.300525-19.5503 72.962713-63.696838 131.891371-119.159155 168.264056-55.95107 36.693214-123.390463 50.465093-189.017869 32.880282-65.627407-17.58481-117.145695-63.231304-147.254136-122.984094-29.845433-59.230828-38.613127-132.337812-19.062827-205.300525s63.696838-131.891371 119.159155-168.264056z"/><path d="m366.951162 173.364501c-29.823015 1.164114-59.070853 8.834647-86.369 22.069041-68.153597 33.041495-124.15438 100.763667-146.612113 188.484601-37.7441561 147.430406 42.556496 294.261636 168.249731 329.511233 11.89057 3.334609 23.841984 5.539924 35.768274 6.674953" transform="matrix(.98162718 .190809 -.190809 .98162718 89.756511 -38.688181)"/><path d="m650.621618 642.879873c73.154257 19.51655 150.265545-30.834243 172.232883-112.461643 21.967337-81.627401-19.52786-163.620773-92.682117-183.137324-73.154257-19.51655-150.265545 30.834243-172.232883 112.461643-21.967337 81.627401 19.52786 163.620773 92.682117 183.137324z"/><path d="m647.887796 636.073318c71.125165 18.617761 146.097605-29.414245 167.45563-107.282489 21.358026-77.868244-18.986212-156.085606-90.111377-174.703367-71.125165-18.617762-146.097605 29.414244-167.455631 107.282488-21.358025 77.868244 18.986213 156.085606 90.111378 174.703368z"/><path d="m456.782371 380.258879 115.492496 43.028994m-7.848933 141.126585-115.028541 43.153401"/><path d="m596.766245 380 103 41m-6 132-92.246528 36.719492m271.567809 50.360898 45.912474 120.569587m-147.965528-120.569587-35.608241 111.91961" transform="matrix(-1 0 0 1 1515.766246 0)"/></g></g></svg>